# xmcd
#
# Track frame offsets:
# 150
# 14412
# 21573
# 32724
# 48895
# 57562
# 63960
# 71902
# 78671
# 86170
# 91705
# 104583
# 115822
# 126562
# 129948
# 147926
# 160395
# 169004
# 184582
# 193360
# 209468
# 230766
# 252111
#
# Disc length: 3659 seconds
#
#
# Revision: 0
# Processed by: cddbd v1.5.2PL0 Copyright (c) Steve Scherf et al.
# Submitted via: FreeRIP 2.945 
#
DISCID=570e4917
DTITLE=The Doo Wops - almostnearlyrecognizable
DYEAR=2005
DGENRE=Comedy
TTITLE0=Nug's Intro
TTITLE1=Energy Check
TTITLE2=Internet Dating
TTITLE3=Internet Gigolo
TTITLE4=Flying Fanculo
TTITLE5=Talkin' about the blues
TTITLE6=Tourette Syndrome Blues
TTITLE7=I hop my wife doesn't hear this
TTITLE8=Crazy Woman
TTITLE9=Grade 2 Moustache
TTITLE10=Nonna
TTITLE11=Peanut Butter
TTITLE12=Rusty and Murray
TTITLE13=Urban Music Kings
TTITLE14=That's how I roll
TTITLE15=David Sweats
TTITLE16=Hot Dog Man
TTITLE17=Little Thoughts
TTITLE18=Wake me up
TTITLE19=I'm only friends with you
TTITLE20=Haircut
TTITLE21=Fashion Trends
TTITLE22=Crazy Bush
EXTD=
EXTT0=
EXTT1=
EXTT2=
EXTT3=
EXTT4=
EXTT5=
EXTT6=
EXTT7=
EXTT8=
EXTT9=
EXTT10=
EXTT11=
EXTT12=
EXTT13=
EXTT14=
EXTT15=
EXTT16=
EXTT17=
EXTT18=
EXTT19=
EXTT20=
EXTT21=
EXTT22=
PLAYORDER=
